<svg width="192" height="50" viewBox="0 0 192 50" fill="none" xmlns="http://www.w3.org/2000/svg">
<path d="M3.50969 49.72C2.94969 47.6667 2.46969 45.6533 2.06969 43.68C1.66969 41.7333 1.36302 39.9867 1.14969 38.44C0.936354 36.8933 0.829688 35.7467 0.829688 35C0.829688 33.0267 1.14969 31.2267 1.78969 29.6C2.42969 27.9733 3.25635 26.5467 4.26969 25.32C5.28302 24.0667 6.37635 23.0133 7.54969 22.16C8.72302 21.28 9.85635 20.6267 10.9497 20.2C12.0697 19.7467 13.0164 19.52 13.7897 19.52C14.4564 19.52 15.043 19.6667 15.5497 19.96C16.0564 20.2533 16.5497 20.8267 17.0297 21.68C17.5097 22.5333 18.0164 23.7867 18.5497 25.44C19.0564 26.96 19.5364 28.12 19.9897 28.92C20.443 29.6933 20.9364 30.2267 21.4697 30.52C22.003 30.7867 22.6164 30.92 23.3097 30.92C23.8697 30.92 24.2697 31.08 24.5097 31.4C24.7764 31.6933 24.9097 32.0533 24.9097 32.48C24.9097 32.9067 24.723 33.3067 24.3497 33.68C23.9764 34.0267 23.4964 34.2 22.9097 34.2C21.8697 34.2 20.9764 34.0133 20.2297 33.64C19.5097 33.2667 18.883 32.76 18.3497 32.12L19.2697 31.36C18.9497 32.1333 18.5364 32.7733 18.0297 33.28C17.5497 33.76 17.003 34.12 16.3897 34.36C15.803 34.6 15.1764 34.72 14.5097 34.72C13.7364 34.72 12.9364 34.5733 12.1097 34.28C11.283 34.0133 10.4697 33.6133 9.66969 33.08C8.86969 32.52 8.10969 31.84 7.38969 31.04C6.69635 30.24 6.08302 29.3333 5.54969 28.32L5.94969 28.4C5.20302 29.44 4.70969 30.5733 4.46969 31.8C4.22969 33 4.10969 34.0667 4.10969 35C4.10969 35.7467 4.18969 36.6933 4.34969 37.84C4.50969 39.0133 4.70969 40.2533 4.94969 41.56C5.21635 42.8667 5.49635 44.16 5.78969 45.44C6.10969 46.7467 6.40302 47.92 6.66969 48.96L3.50969 49.72ZM14.8297 31.44C15.3097 31.44 15.6964 31.3467 15.9897 31.16C16.3097 30.9733 16.523 30.6933 16.6297 30.32C16.7364 29.9467 16.6964 29.48 16.5097 28.92C16.1897 27.96 15.8964 27.12 15.6297 26.4C15.363 25.6533 15.0964 25.04 14.8297 24.56C14.5897 24.0533 14.3364 23.68 14.0697 23.44C13.803 23.2 13.523 23.08 13.2297 23.08C12.9364 23.08 12.563 23.1467 12.1097 23.28C11.683 23.4133 11.2164 23.6133 10.7097 23.88C10.2297 24.1467 9.73635 24.48 9.22969 24.88C8.72302 25.28 8.24302 25.7467 7.78969 26.28L7.82969 25.96C8.41635 27.1867 9.12302 28.2133 9.94969 29.04C10.803 29.8667 11.6564 30.48 12.5097 30.88C13.3897 31.2533 14.163 31.44 14.8297 31.44ZM22.8906 34.2L23.2906 30.92C24.864 30.92 26.0906 30.8667 26.9706 30.76C27.8506 30.6267 28.4773 30.32 28.8506 29.84C29.224 29.3333 29.4106 28.5467 29.4106 27.48C29.4106 26.8133 29.304 26.0267 29.0906 25.12C28.8773 24.1867 28.5973 23.2 28.2506 22.16C27.904 21.12 27.5306 20.0933 27.1306 19.08L30.3706 17.88C30.7173 18.7333 31.0373 19.7067 31.3306 20.8C31.6506 21.8933 31.9173 22.9733 32.1306 24.04C32.344 25.1067 32.4506 26.04 32.4506 26.84C32.4506 28.1733 32.264 29.3067 31.8906 30.24C31.544 31.1733 30.984 31.9333 30.2106 32.52C29.4373 33.1067 28.4373 33.5333 27.2106 33.8C26.0106 34.0667 24.5706 34.2 22.8906 34.2ZM30.2906 41.76C29.7306 41.76 29.2506 41.56 28.8506 41.16C28.4773 40.7867 28.2906 40.3333 28.2906 39.8C28.2906 39.2667 28.4773 38.8 28.8506 38.4C29.2506 38 29.7306 37.8 30.2906 37.8C30.824 37.8 31.2773 38 31.6506 38.4C32.0506 38.8 32.2506 39.2667 32.2506 39.8C32.2506 40.3333 32.0506 40.7867 31.6506 41.16C31.2773 41.56 30.824 41.76 30.2906 41.76ZM24.8106 41.76C24.2506 41.76 23.7706 41.56 23.3706 41.16C22.9973 40.7867 22.8106 40.3333 22.8106 39.8C22.8106 39.2667 22.9973 38.8 23.3706 38.4C23.7706 38 24.2506 37.8 24.8106 37.8C25.344 37.8 25.7973 38 26.1706 38.4C26.5706 38.8 26.7706 39.2667 26.7706 39.8C26.7706 40.3333 26.5706 40.7867 26.1706 41.16C25.7973 41.56 25.344 41.76 24.8106 41.76ZM35.0038 43.28L33.8437 40.24C35.7904 39.6 37.4038 38.8667 38.6838 38.04C39.9904 37.2133 41.0171 36.3333 41.7638 35.4C42.5371 34.4667 43.0838 33.52 43.4038 32.56C43.7238 31.5733 43.8838 30.6267 43.8838 29.72C43.8838 28.4133 43.5904 27.0933 43.0038 25.76C42.4438 24.4 41.8171 23.12 41.1238 21.92L44.0438 20.44C44.5504 21.3733 44.9904 22.2933 45.3638 23.2C45.7638 24.1067 46.1104 24.96 46.4038 25.76C46.7238 26.56 46.9771 27.2933 47.1638 27.96C47.5371 29.1067 48.0171 29.8933 48.6038 30.32C49.2171 30.72 50.0438 30.92 51.0838 30.92C51.6438 30.92 52.0438 31.08 52.2838 31.4C52.5504 31.6933 52.6838 32.0533 52.6838 32.48C52.6838 32.9067 52.4971 33.3067 52.1238 33.68C51.7504 34.0267 51.2704 34.2 50.6838 34.2C49.5104 34.2 48.5504 34 47.8038 33.6C47.0838 33.1733 46.5371 32.6267 46.1638 31.96C45.7904 31.2667 45.5371 30.5467 45.4037 29.8L46.6838 30.52C46.6838 32.28 46.2838 33.88 45.4838 35.32C44.7104 36.7867 43.7104 38.0533 42.4838 39.12C41.2571 40.2133 39.9771 41.1067 38.6438 41.8C37.3104 42.4933 36.0971 42.9867 35.0038 43.28ZM50.7031 34.2L51.1031 30.92H54.1831C56.3965 30.92 58.0365 30.8 59.1031 30.56C60.1698 30.32 60.8631 30 61.1831 29.6C61.5298 29.2 61.7031 28.7867 61.7031 28.36C61.7031 27.72 61.4631 27.0133 60.9831 26.24C60.5031 25.4667 59.8898 24.68 59.1431 23.88C58.3965 23.0533 57.5965 22.24 56.7431 21.44C55.9165 20.64 55.1298 19.9067 54.3831 19.24C53.6365 18.5733 53.0231 18 52.5431 17.52C52.0631 17.0133 51.8231 16.6533 51.8231 16.44C51.8231 16.04 51.8498 15.6533 51.9031 15.28C51.9831 14.9067 52.0765 14.56 52.1831 14.24C52.3165 13.92 52.4765 13.6667 52.6631 13.48C53.1965 12.92 53.9298 12.3333 54.8631 11.72C55.7965 11.08 56.8765 10.44 58.1031 9.8C59.3298 9.13333 60.6365 8.46666 62.0231 7.8C63.4098 7.10666 64.8098 6.41333 66.2231 5.72L67.5831 8.68C66.3031 9.32 65.0231 9.96 63.7431 10.6C62.4631 11.2133 61.2231 11.8267 60.0231 12.44C58.8231 13.0533 57.6898 13.68 56.6231 14.32C55.5831 14.9333 54.6365 15.56 53.7831 16.2L54.0231 14.84C55.2231 15.8533 56.3565 16.8267 57.4231 17.76C58.4898 18.6933 59.5031 19.6533 60.4631 20.64C61.4231 21.6 62.3165 22.64 63.1431 23.76C63.9698 24.88 64.7431 26.12 65.4631 27.48C66.0231 28.52 66.6765 29.28 67.4231 29.76C68.1698 30.24 68.9031 30.56 69.6231 30.72C70.3698 30.8533 70.9698 30.92 71.4231 30.92C71.9831 30.92 72.3831 31.08 72.6231 31.4C72.8898 31.6933 73.0231 32.0533 73.0231 32.48C73.0231 32.9067 72.8365 33.3067 72.4631 33.68C72.0898 34.0267 71.6098 34.2 71.0231 34.2C70.3031 34.2 69.4498 34.0933 68.4631 33.88C67.5031 33.64 66.5565 33.1867 65.6231 32.52C64.6898 31.8533 63.9165 30.84 63.3031 29.48L64.5031 29.96C64.1031 30.68 63.6365 31.3067 63.1031 31.84C62.5965 32.3467 61.9431 32.7867 61.1431 33.16C60.3431 33.5067 59.3698 33.7733 58.2231 33.96C57.0765 34.12 55.6765 34.2 54.0231 34.2H50.7031ZM71.0156 34.2L71.3756 30.92C72.8956 30.92 73.9623 30.7733 74.5756 30.48C75.189 30.1867 75.5356 29.6667 75.6156 28.92C75.7223 28.1733 75.749 27.1333 75.6956 25.8L74.9356 5.44H78.1756L78.9756 25.44C79.029 26.8533 78.9756 28.1067 78.8156 29.2C78.6823 30.2933 78.3356 31.2133 77.7756 31.96C77.2423 32.7067 76.429 33.2667 75.3356 33.64C74.269 34.0133 72.829 34.2 71.0156 34.2ZM85.0863 34L84.2863 5.44H87.5263L88.3263 34H85.0863ZM103.388 34.04C103.388 33.4 103.441 32.72 103.548 32C103.681 31.2533 103.868 30.4667 104.108 29.64C104.374 28.7867 104.694 27.8933 105.068 26.96L107.948 28.08C107.681 28.8267 107.441 29.5333 107.228 30.2C107.041 30.8667 106.894 31.4933 106.788 32.08C106.708 32.6667 106.668 33.2267 106.668 33.76C106.668 35.1467 107.028 36.2933 107.748 37.2C108.468 38.1067 109.454 38.7867 110.708 39.24C111.961 39.6933 113.374 39.92 114.948 39.92C116.734 39.92 118.228 39.68 119.428 39.2C120.654 38.72 121.628 38.08 122.348 37.28C123.068 36.5067 123.574 35.64 123.868 34.68C124.188 33.72 124.348 32.7733 124.348 31.84C124.348 30.8267 124.148 29.6 123.748 28.16C123.374 26.72 122.668 24.9333 121.628 22.8L124.628 21.28C125.161 22.2933 125.641 23.36 126.068 24.48C126.521 25.5733 126.881 26.7067 127.148 27.88C127.441 29.0267 127.588 30.2 127.588 31.4C127.588 32.44 127.454 33.5067 127.188 34.6C126.948 35.6933 126.534 36.7467 125.948 37.76C125.361 38.8 124.574 39.72 123.588 40.52C122.628 41.3467 121.428 42 119.988 42.48C118.574 42.96 116.881 43.2 114.908 43.2C113.361 43.2 111.881 43.0133 110.468 42.64C109.081 42.2933 107.854 41.7467 106.788 41C105.748 40.2533 104.921 39.3067 104.308 38.16C103.694 37.0133 103.388 35.64 103.388 34.04ZM115.468 18.08C114.908 18.08 114.428 17.8933 114.028 17.52C113.654 17.12 113.468 16.6533 113.468 16.12C113.468 15.5867 113.654 15.12 114.028 14.72C114.428 14.32 114.908 14.12 115.468 14.12C116.001 14.12 116.454 14.32 116.828 14.72C117.228 15.12 117.428 15.5867 117.428 16.12C117.428 16.6533 117.228 17.12 116.828 17.52C116.454 17.8933 116.001 18.08 115.468 18.08ZM133.13 34L132.45 8.24H135.69L136.37 34H133.13ZM136.73 4.36C135.93 4.36 135.21 4.22666 134.57 3.96C133.93 3.66667 133.344 3.38667 132.81 3.12C132.277 2.85333 131.784 2.72 131.33 2.72C130.85 2.72 130.41 2.84 130.01 3.08C129.637 3.32 129.237 3.65333 128.81 4.08L127.29 2.8C127.904 2.02667 128.544 1.42667 129.21 0.999998C129.877 0.546664 130.584 0.319997 131.33 0.319997C131.997 0.319997 132.61 0.453331 133.17 0.719999C133.73 0.986666 134.29 1.25333 134.85 1.52C135.437 1.78666 136.064 1.92 136.73 1.92C137.157 1.92 137.557 1.85333 137.93 1.72C138.304 1.56 138.757 1.32 139.29 0.999998L140.45 2.64C139.597 3.38667 138.864 3.86667 138.25 4.08C137.664 4.26666 137.157 4.36 136.73 4.36ZM139.144 43.28L137.984 40.24C139.931 39.6 141.544 38.8667 142.824 38.04C144.131 37.2133 145.158 36.3333 145.904 35.4C146.678 34.4667 147.224 33.52 147.544 32.56C147.864 31.5733 148.024 30.6267 148.024 29.72C148.024 28.4133 147.731 27.0933 147.144 25.76C146.584 24.4 145.958 23.12 145.264 21.92L148.184 20.44C148.691 21.3733 149.131 22.2933 149.504 23.2C149.904 24.1067 150.251 24.96 150.544 25.76C150.864 26.56 151.118 27.2933 151.304 27.96C151.678 29.1067 152.158 29.8933 152.744 30.32C153.358 30.72 154.184 30.92 155.224 30.92C155.784 30.92 156.184 31.08 156.424 31.4C156.691 31.6933 156.824 32.0533 156.824 32.48C156.824 32.9067 156.638 33.3067 156.264 33.68C155.891 34.0267 155.411 34.2 154.824 34.2C153.651 34.2 152.691 34 151.944 33.6C151.224 33.1733 150.678 32.6267 150.304 31.96C149.931 31.2667 149.678 30.5467 149.544 29.8L150.824 30.52C150.824 32.28 150.424 33.88 149.624 35.32C148.851 36.7867 147.851 38.0533 146.624 39.12C145.398 40.2133 144.118 41.1067 142.784 41.8C141.451 42.4933 140.238 42.9867 139.144 43.28ZM154.844 34.2L155.244 30.92C155.91 30.92 156.59 30.92 157.284 30.92C158.004 30.8933 158.71 30.8533 159.404 30.8C160.097 30.7467 160.764 30.68 161.404 30.6C162.044 30.52 162.617 30.4 163.124 30.24C164.057 29.9467 164.91 29.56 165.684 29.08C166.484 28.6 167.124 28.0133 167.604 27.32C168.11 26.6267 168.364 25.8267 168.364 24.92C168.364 24.3067 168.217 23.68 167.924 23.04C167.63 22.3733 167.23 21.8133 166.724 21.36C166.217 20.9067 165.63 20.68 164.964 20.68C164.324 20.68 163.724 20.8933 163.164 21.32C162.63 21.7467 162.19 22.3067 161.844 23C161.524 23.6667 161.364 24.36 161.364 25.08C161.364 25.9333 161.577 26.7067 162.004 27.4C162.457 28.0667 163.004 28.64 163.644 29.12C164.284 29.6 164.924 29.9867 165.564 30.28L161.764 31.4C161.337 31.08 160.83 30.64 160.244 30.08C159.684 29.4933 159.177 28.7733 158.724 27.92C158.297 27.0667 158.084 26.0933 158.084 25C158.084 23.9333 158.27 22.9467 158.644 22.04C159.044 21.1067 159.564 20.2933 160.204 19.6C160.87 18.9067 161.617 18.3733 162.444 18C163.297 17.6 164.177 17.4 165.084 17.4C166.39 17.4 167.537 17.76 168.524 18.48C169.51 19.2 170.27 20.12 170.804 21.24C171.364 22.3333 171.644 23.48 171.644 24.68C171.644 25.8267 171.43 26.8667 171.004 27.8C170.577 28.7067 169.99 29.52 169.244 30.24C168.524 30.96 167.67 31.5733 166.684 32.08C165.724 32.5867 164.697 33 163.604 33.32C162.99 33.5067 162.324 33.6533 161.604 33.76C160.91 33.8667 160.177 33.9467 159.404 34C158.63 34.08 157.857 34.1333 157.084 34.16C156.31 34.1867 155.564 34.2 154.844 34.2ZM174.644 34.2C173.31 34.2 171.924 34.12 170.484 33.96C169.07 33.7733 167.724 33.5467 166.444 33.28C165.19 32.9867 164.15 32.6667 163.324 32.32L166.084 30.32C166.884 30.4267 167.83 30.5333 168.924 30.64C170.017 30.72 171.11 30.7867 172.204 30.84C173.297 30.8933 174.244 30.92 175.044 30.92C175.604 30.92 176.004 31.08 176.244 31.4C176.51 31.6933 176.644 32.0533 176.644 32.48C176.644 32.9067 176.457 33.3067 176.084 33.68C175.71 34.0267 175.23 34.2 174.644 34.2ZM167.524 13.28C166.964 13.28 166.484 13.0933 166.084 12.72C165.71 12.32 165.524 11.8533 165.524 11.32C165.524 10.7867 165.71 10.32 166.084 9.92C166.484 9.52 166.964 9.32 167.524 9.32C168.057 9.32 168.51 9.52 168.884 9.92C169.284 10.32 169.484 10.7867 169.484 11.32C169.484 11.8533 169.284 12.32 168.884 12.72C168.51 13.0933 168.057 13.28 167.524 13.28ZM162.044 13.28C161.484 13.28 161.004 13.0933 160.604 12.72C160.23 12.32 160.044 11.8533 160.044 11.32C160.044 10.7867 160.23 10.32 160.604 9.92C161.004 9.52 161.484 9.32 162.044 9.32C162.577 9.32 163.03 9.52 163.404 9.92C163.804 10.32 164.004 10.7867 164.004 11.32C164.004 11.8533 163.804 12.32 163.404 12.72C163.03 13.0933 162.577 13.28 162.044 13.28ZM174.648 34.2L175.008 30.92C176.528 30.92 177.595 30.7733 178.208 30.48C178.822 30.1867 179.168 29.6667 179.248 28.92C179.355 28.1733 179.382 27.1333 179.328 25.8L178.568 5.44H181.808L182.608 25.44C182.662 26.8533 182.608 28.1067 182.448 29.2C182.315 30.2933 181.968 31.2133 181.408 31.96C180.875 32.7067 180.062 33.2667 178.968 33.64C177.902 34.0133 176.462 34.2 174.648 34.2ZM188.719 34L187.919 5.44H191.159L191.959 34H188.719Z" fill="#F8EFEF"/>
</svg>
